<svg width="50" height="50" viewBox="0 0 50 50" fill="none" xmlns="http://www.w3.org/2000/svg">
<g clip-path="url(#clip0_81_177)">
<path d="M25 46.875C19.1984 46.875 13.6344 44.5703 9.53204 40.468C5.42968 36.3656 3.125 30.8016 3.125 25C3.125 19.1984 5.42968 13.6344 9.53204 9.53204C13.6344 5.42968 19.1984 3.125 25 3.125C30.8016 3.125 36.3656 5.42968 40.468 9.53204C44.5703 13.6344 46.875 19.1984 46.875 25C46.875 30.8016 44.5703 36.3656 40.468 40.468C36.3656 44.5703 30.8016 46.875 25 46.875ZM25 50C31.6304 50 37.9893 47.3661 42.6777 42.6777C47.3661 37.9893 50 31.6304 50 25C50 18.3696 47.3661 12.0107 42.6777 7.32233C37.9893 2.63392 31.6304 0 25 0C18.3696 0 12.0107 2.63392 7.32233 7.32233C2.63392 12.0107 0 18.3696 0 25C0 31.6304 2.63392 37.9893 7.32233 42.6777C12.0107 47.3661 18.3696 50 25 50Z" fill="#4300FF"/>
<path d="M13.3906 38.8531C13.7495 39.0603 14.1759 39.1165 14.5762 39.0092C14.9765 38.902 15.3177 38.6401 15.525 38.2812C16.4847 36.6177 17.8657 35.2364 19.5291 34.2763C21.1925 33.3162 23.0794 32.8114 25 32.8125C29.0468 32.8125 32.5812 35.0094 34.475 38.2812C34.6836 38.6372 35.0246 38.8962 35.4235 39.0016C35.8224 39.1071 36.2468 39.0505 36.6042 38.8442C36.9615 38.6379 37.2227 38.2986 37.3308 37.9004C37.4389 37.5022 37.3851 37.0774 37.1812 36.7188C35.9472 34.5801 34.1717 32.8043 32.0333 31.57C29.8949 30.3357 27.469 29.6864 25 29.6875C22.531 29.687 20.1054 30.3366 17.9671 31.5708C15.8288 32.8051 14.0532 34.5806 12.8187 36.7188C12.6115 37.0776 12.5554 37.5041 12.6626 37.9044C12.7699 38.3046 13.0317 38.6459 13.3906 38.8531ZM21.875 20.3125C21.875 22.9 20.475 25 18.75 25C17.025 25 15.625 22.9 15.625 20.3125C15.625 17.725 17.025 15.625 18.75 15.625C20.475 15.625 21.875 17.725 21.875 20.3125ZM34.375 20.3125C34.375 22.9 32.975 25 31.25 25C29.525 25 28.125 22.9 28.125 20.3125C28.125 17.725 29.525 15.625 31.25 15.625C32.975 15.625 34.375 17.725 34.375 20.3125Z" fill="#4300FF"/>
</g>
<defs>
<clipPath id="clip0_81_177">
<rect width="50" height="50" fill="white"/>
</clipPath>
</defs>
</svg>
