<svg width="209" height="81" viewBox="0 0 209 81" fill="none" xmlns="http://www.w3.org/2000/svg">
<path d="M26.8333 35.0625L34.5625 19.75H35.4375L43.1666 35.0625H26.8333ZM32.8125 69.625L7.65623 39.4375H32.8125V69.625ZM37.1875 69.625V39.4375H62.3437L37.1875 69.625ZM47.9791 35.0625L40.3958 19.75H55.4166L63.0729 35.0625H47.9791ZM6.92706 35.0625L14.5833 19.75H29.6041L22.0208 35.0625H6.92706Z" fill="#001AFF"/>
<path d="M82.9 39.175C81.6167 39.175 80.4667 38.9667 79.45 38.55C78.4333 38.1333 77.6167 37.5167 77 36.7C76.4 35.8833 76.0833 34.9 76.05 33.75H80.6C80.6667 34.4 80.8917 34.9 81.275 35.25C81.6583 35.5833 82.1583 35.75 82.775 35.75C83.4083 35.75 83.9083 35.6083 84.275 35.325C84.6417 35.025 84.825 34.6167 84.825 34.1C84.825 33.6667 84.675 33.3083 84.375 33.025C84.0917 32.7417 83.7333 32.5083 83.3 32.325C82.8833 32.1417 82.2833 31.9333 81.5 31.7C80.3667 31.35 79.4417 31 78.725 30.65C78.0083 30.3 77.3917 29.7833 76.875 29.1C76.3583 28.4167 76.1 27.525 76.1 26.425C76.1 24.7917 76.6917 23.5167 77.875 22.6C79.0583 21.6667 80.6 21.2 82.5 21.2C84.4333 21.2 85.9917 21.6667 87.175 22.6C88.3583 23.5167 88.9917 24.8 89.075 26.45H84.45C84.4167 25.8833 84.2083 25.4417 83.825 25.125C83.4417 24.7917 82.95 24.625 82.35 24.625C81.8333 24.625 81.4167 24.7667 81.1 25.05C80.7833 25.3167 80.625 25.7083 80.625 26.225C80.625 26.7917 80.8917 27.2333 81.425 27.55C81.9583 27.8667 82.7917 28.2083 83.925 28.575C85.0583 28.9583 85.975 29.325 86.675 29.675C87.3917 30.025 88.0083 30.5333 88.525 31.2C89.0417 31.8667 89.3 32.725 89.3 33.775C89.3 34.775 89.0417 35.6833 88.525 36.5C88.025 37.3167 87.2917 37.9667 86.325 38.45C85.3583 38.9333 84.2167 39.175 82.9 39.175ZM100.506 24.9C102.106 24.9 103.389 25.4333 104.356 26.5C105.323 27.55 105.806 29 105.806 30.85V39H101.556V31.425C101.556 30.4917 101.314 29.7667 100.831 29.25C100.348 28.7333 99.6975 28.475 98.8809 28.475C98.0642 28.475 97.4142 28.7333 96.9309 29.25C96.4475 29.7667 96.2059 30.4917 96.2059 31.425V39H91.9309V20.5H96.2059V26.925C96.6392 26.3083 97.2309 25.8167 97.9809 25.45C98.7309 25.0833 99.5725 24.9 100.506 24.9ZM107.927 32C107.927 30.5667 108.193 29.3083 108.727 28.225C109.277 27.1417 110.018 26.3083 110.952 25.725C111.885 25.1417 112.927 24.85 114.077 24.85C115.06 24.85 115.918 25.05 116.652 25.45C117.402 25.85 117.977 26.375 118.377 27.025V25.05H122.652V39H118.377V37.025C117.96 37.675 117.377 38.2 116.627 38.6C115.893 39 115.035 39.2 114.052 39.2C112.918 39.2 111.885 38.9083 110.952 38.325C110.018 37.725 109.277 36.8833 108.727 35.8C108.193 34.7 107.927 33.4333 107.927 32ZM118.377 32.025C118.377 30.9583 118.077 30.1167 117.477 29.5C116.893 28.8833 116.177 28.575 115.327 28.575C114.477 28.575 113.752 28.8833 113.152 29.5C112.568 30.1 112.277 30.9333 112.277 32C112.277 33.0667 112.568 33.9167 113.152 34.55C113.752 35.1667 114.477 35.475 115.327 35.475C116.177 35.475 116.893 35.1667 117.477 34.55C118.077 33.9333 118.377 33.0917 118.377 32.025ZM143.544 24.9C145.278 24.9 146.653 25.425 147.669 26.475C148.703 27.525 149.219 28.9833 149.219 30.85V39H144.969V31.425C144.969 30.525 144.728 29.8333 144.244 29.35C143.778 28.85 143.128 28.6 142.294 28.6C141.461 28.6 140.803 28.85 140.319 29.35C139.853 29.8333 139.619 30.525 139.619 31.425V39H135.369V31.425C135.369 30.525 135.128 29.8333 134.644 29.35C134.178 28.85 133.528 28.6 132.694 28.6C131.861 28.6 131.203 28.85 130.719 29.35C130.253 29.8333 130.019 30.525 130.019 31.425V39H125.744V25.05H130.019V26.8C130.453 26.2167 131.019 25.7583 131.719 25.425C132.419 25.075 133.211 24.9 134.094 24.9C135.144 24.9 136.078 25.125 136.894 25.575C137.728 26.025 138.378 26.6667 138.844 27.5C139.328 26.7333 139.986 26.1083 140.819 25.625C141.653 25.1417 142.561 24.9 143.544 24.9ZM156.484 27.025C156.884 26.375 157.459 25.85 158.209 25.45C158.959 25.05 159.818 24.85 160.784 24.85C161.934 24.85 162.976 25.1417 163.909 25.725C164.843 26.3083 165.576 27.1417 166.109 28.225C166.659 29.3083 166.934 30.5667 166.934 32C166.934 33.4333 166.659 34.7 166.109 35.8C165.576 36.8833 164.843 37.725 163.909 38.325C162.976 38.9083 161.934 39.2 160.784 39.2C159.801 39.2 158.943 39.0083 158.209 38.625C157.476 38.225 156.901 37.7 156.484 37.05V39H152.209V20.5H156.484V27.025ZM162.584 32C162.584 30.9333 162.284 30.1 161.684 29.5C161.101 28.8833 160.376 28.575 159.509 28.575C158.659 28.575 157.934 28.8833 157.334 29.5C156.751 30.1167 156.459 30.9583 156.459 32.025C156.459 33.0917 156.751 33.9333 157.334 34.55C157.934 35.1667 158.659 35.475 159.509 35.475C160.359 35.475 161.084 35.1667 161.684 34.55C162.284 33.9167 162.584 33.0667 162.584 32ZM168.327 32C168.327 30.5667 168.594 29.3083 169.127 28.225C169.677 27.1417 170.419 26.3083 171.352 25.725C172.285 25.1417 173.327 24.85 174.477 24.85C175.46 24.85 176.319 25.05 177.052 25.45C177.802 25.85 178.377 26.375 178.777 27.025V25.05H183.052V39H178.777V37.025C178.36 37.675 177.777 38.2 177.027 38.6C176.294 39 175.435 39.2 174.452 39.2C173.319 39.2 172.285 38.9083 171.352 38.325C170.419 37.725 169.677 36.8833 169.127 35.8C168.594 34.7 168.327 33.4333 168.327 32ZM178.777 32.025C178.777 30.9583 178.477 30.1167 177.877 29.5C177.294 28.8833 176.577 28.575 175.727 28.575C174.877 28.575 174.152 28.8833 173.552 29.5C172.969 30.1 172.677 30.9333 172.677 32C172.677 33.0667 172.969 33.9167 173.552 34.55C174.152 35.1667 174.877 35.475 175.727 35.475C176.577 35.475 177.294 35.1667 177.877 34.55C178.477 33.9333 178.777 33.0917 178.777 32.025Z" fill="#4300FF"/>
<path d="M60 49C116.612 82.75 185 49 185 49" stroke="#001AFF" stroke-width="4"/>
<path d="M74 56C130.612 89.75 199 56 199 56" stroke="#001AFF" stroke-width="4"/>
</svg>
