<svg width="24" height="24" viewBox="0 0 24 24" fill="none" xmlns="http://www.w3.org/2000/svg">
<path d="M15.279 10.283C15.637 10.062 15.876 9.762 15.992 9.379C15.664 9.55656 15.312 9.68557 14.947 9.762C14.7977 9.59781 14.615 9.46758 14.4111 9.38012C14.2071 9.29265 13.9868 9.24998 13.765 9.255C13.301 9.255 12.91 9.418 12.59 9.734C12.4358 9.88441 12.3139 10.0647 12.2317 10.2638C12.1496 10.4629 12.1088 10.6766 12.112 10.892C12.112 11.029 12.129 11.152 12.164 11.256C10.796 11.208 9.665 10.642 8.773 9.55C8.62669 9.79868 8.5484 10.0815 8.546 10.37C8.546 10.948 8.79 11.406 9.276 11.743C9.02063 11.7257 8.77182 11.6545 8.546 11.534C8.546 11.947 8.667 12.292 8.911 12.596C9.154 12.896 9.468 13.088 9.85 13.169C9.70783 13.205 9.56166 13.2228 9.415 13.222C9.31491 13.2277 9.2146 13.2152 9.119 13.185C9.223 13.522 9.415 13.794 9.693 14.003C9.97 14.213 10.29 14.323 10.65 14.333C10.0722 14.7924 9.35313 15.0376 8.615 15.027C8.427 15.027 8.295 15.025 8.215 15.01C8.96466 15.4976 9.84177 15.7526 10.736 15.743C11.687 15.743 12.528 15.502 13.258 15.02C13.988 14.541 14.529 13.95 14.875 13.253C15.2176 12.5795 15.3961 11.8346 15.396 11.079V10.87C15.732 10.617 16.005 10.332 16.214 10.016C15.9165 10.1487 15.6017 10.2386 15.279 10.283ZM12 21C9.51 21 7.365 20.11 5.624 18.354C3.883 16.603 3 14.465 3 12C3 9.512 3.884 7.366 5.627 5.625C7.367 3.884 9.511 3 12 3C14.466 3 16.604 3.883 18.354 5.624C20.11 7.366 21 9.512 21 12C21 14.465 20.111 16.604 18.356 18.357C16.605 20.11 14.467 21 12 21ZM12 5C10.034 5 8.412 5.667 7.042 7.04C5.667 8.412 5 10.034 5 12C5 13.944 5.668 15.562 7.043 16.945C8.415 18.328 10.036 19 12 19C13.943 19 15.56 18.327 16.942 16.943C18.327 15.559 19 13.941 19 12C19 10.037 18.328 8.415 16.945 7.043C15.562 5.668 13.945 5 12 5Z" fill="#001AFF"/>
</svg>
