<svg width="24" height="25" viewBox="0 0 24 25" fill="none" xmlns="http://www.w3.org/2000/svg">
<path d="M10 14.5C9.16667 14.5 8.45833 14.2083 7.875 13.625C7.29167 13.0417 7 12.3333 7 11.5C7 11.1333 7.05833 10.7873 7.175 10.462C7.29167 10.1373 7.46667 9.84167 7.7 9.575C7.63333 9.40833 7.58333 9.23333 7.55 9.05C7.51667 8.86667 7.5 8.68333 7.5 8.5C7.5 7.86667 7.67067 7.304 8.012 6.812C8.354 6.32067 8.8 5.95833 9.35 5.725C9.68333 5.34167 10.075 5.04167 10.525 4.825C10.975 4.60833 11.4667 4.5 12 4.5C12.5333 4.5 13.025 4.60833 13.475 4.825C13.925 5.04167 14.3167 5.34167 14.65 5.725C15.2 5.95833 15.646 6.32067 15.988 6.812C16.3293 7.304 16.5 7.86667 16.5 8.5C16.5 8.68333 16.4833 8.86667 16.45 9.05C16.4167 9.23333 16.3667 9.40833 16.3 9.575C16.5333 9.84167 16.7083 10.1373 16.825 10.462C16.9417 10.7873 17 11.1333 17 11.5C17 12.3333 16.7083 13.0417 16.125 13.625C15.5417 14.2083 14.8333 14.5 14 14.5H10ZM4 22.5V19.7C4 19.1333 4.146 18.6127 4.438 18.138C4.72933 17.6627 5.11667 17.3 5.6 17.05C6.63333 16.5333 7.68333 16.1457 8.75 15.887C9.81667 15.629 10.9 15.5 12 15.5C13.1 15.5 14.1833 15.629 15.25 15.887C16.3167 16.1457 17.3667 16.5333 18.4 17.05C18.8833 17.3 19.2707 17.6627 19.562 18.138C19.854 18.6127 20 19.1333 20 19.7V22.5H4Z" fill="#001AFF"/>
</svg>
