<svg width="24" height="25" viewBox="0 0 24 25" fill="none" xmlns="http://www.w3.org/2000/svg">
<path d="M16 17.5V14.5H9V10.5H16V7.5L21 12.5L16 17.5ZM14 2.5C14.5304 2.5 15.0391 2.71071 15.4142 3.08579C15.7893 3.46086 16 3.96957 16 4.5V6.5H14V4.5H5V20.5H14V18.5H16V20.5C16 21.0304 15.7893 21.5391 15.4142 21.9142C15.0391 22.2893 14.5304 22.5 14 22.5H5C4.46957 22.5 3.96086 22.2893 3.58579 21.9142C3.21071 21.5391 3 21.0304 3 20.5V4.5C3 3.96957 3.21071 3.46086 3.58579 3.08579C3.96086 2.71071 4.46957 2.5 5 2.5H14Z" fill="#001AFF"/>
</svg>
