<svg width="133" height="3686" viewBox="0 0 133 3686" fill="none" xmlns="http://www.w3.org/2000/svg">
<path fill-rule="evenodd" clip-rule="evenodd" d="M75 815H68.25H54.5C53.0905 803.453 51.8002 796.415 54.5 789.5L48.5 784L30.5 789.5L19.5 795.5L5.50003 815C5.50003 815 9.00003 820.5 9.00003 822C9.00003 823.5 17.8643 813.378 27 809L40.5 795.5L48.5 818L40.5 822C28.5539 831.171 30.3701 836.526 30.5 846L23 859.5L19.5 876L30.5 889.5L44 893.25L36 882.5L27 876C24.1778 869.615 24.4923 866.627 30.5 863C30.5 863 36 862 44 863C52 864 36 859.5 36 859.5C34.9548 851.391 33.8164 848.967 30.5 849.5C36.1185 846.885 36.5845 845.025 36 841.5C44.464 838.972 47.4767 837.472 45.9176 835.778L44 834.5C44.8977 834.949 45.541 835.369 45.9176 835.778C47.4767 837.472 44.464 838.972 36 841.5C36.5845 845.025 36.1185 846.885 30.5 849.5C33.8164 848.967 34.9548 851.391 36 859.5C36 859.5 52 864 44 863C36 862 30.5 863 30.5 863C24.4923 866.627 24.1778 869.615 27 876L36 882.5L44 893.25L48.5 894.5H61.75H75L100.5 889.5C107.608 882.753 110.207 879.571 110 876C112.56 869.186 111.452 867.653 107.153 867.009C110.507 858.116 107.09 853.743 100.5 846C103.917 842.224 103.328 839.583 100.5 834.5C99.4933 826.182 96.3845 823.668 87.5 822L83.5 818L92 789.5L107.153 801.286L110 803.5C120.35 810.702 125.389 813.642 127.5 809L110 784H100.5L92 776.5H80.5L75 815ZM59.686 889.28C55.3799 886.269 52.8713 884.514 48.5 882.5C46.6563 879.779 45.1958 877.624 44.1042 876.017C44.0695 876.011 44.0348 876.006 44 876C40.8773 871.3 40.7772 871.118 44.1042 876.017C57.9954 878.295 65.0672 878.928 65.5 869.5L60 867.009C55.3486 861.322 55.9106 860.01 60 859.5H68.25C75.0109 859.768 75.6133 860.768 75 863L65.5 869.5L68.25 876C73.0957 881.075 78.7689 878.305 87.5 876C81.4064 883.409 75.8683 886.587 60 889.5L59.686 889.28ZM54.5 853L48.5 859.5C39.8144 857.553 37.9933 854.227 44 841.5C50.8229 844.819 52.7739 847.487 54.5 853ZM80.5 853C78.3888 850.653 80.5905 853.893 83.5 846C85.8517 839.62 95.2739 846.881 87.5 859.5C79.9183 856.084 78.9358 854.761 80.5 853Z" fill="#D9D9D9"/>
<path fill-rule="evenodd" clip-rule="evenodd" d="M75 440H65.5H30.5V559.5H36H68.25H100.5V440H95H87.5H75ZM92 449.5L40.5 451V540.5H92V449.5ZM75 549H60V553.5H75V549Z" fill="#D9D9D9"/>
<path d="M40.5 451L92 449.5V540.5H40.5V451Z" fill="#D9D9D9"/>
<path d="M10.5 1121H120.5V1192H10.5V1121Z" fill="#D9D9D9"/>
<path d="M80 1451L64.5 1447.5H55.5C52.3475 1454.33 49.2474 1457.39 44 1463L62 1469.75C52.0366 1465.14 58.1115 1462.54 85 1455.25L80 1451Z" fill="#D9D9D9"/>
<path d="M100 1498C99.7829 1487.94 102.647 1482.23 109 1472L72 1489L80 1476.5L62 1469.75L44 1463C49.2474 1457.39 52.3475 1454.33 55.5 1447.5C48.647 1445.93 44.945 1445.35 41.5 1451C30.3355 1450.88 28.1526 1454.72 31 1468H26.5C46.6217 1481.59 57.3522 1488.97 59.5 1495C78.5606 1501.44 81.8066 1511.69 77 1530L44 1527C42.0632 1542.8 40.8585 1550 38 1553H44C49.8323 1547.37 51.8267 1542.66 55.2474 1534.6L55.5 1534L59.5 1555.5L60.9535 1553L72 1534L77 1538.87C85.8757 1552.78 95 1563 91.5 1553C88 1543 90.2856 1534.42 85 1530C96.0604 1523.86 101.577 1519.58 100 1498Z" fill="#D9D9D9"/>
<path d="M80 1476.5L100 1468C105.383 1452.71 84 1441 85 1455.25C58.1115 1462.54 52.0366 1465.14 62 1469.75L80 1476.5Z" fill="#D9D9D9"/>
<path d="M109 1472L100 1468L80 1476.5L72 1489L109 1472Z" fill="#D9D9D9"/>
<path d="M44 1527L77 1530C81.8066 1511.69 78.5606 1501.44 59.5 1495C57.3522 1488.97 46.6217 1481.59 26.5 1468C22.9038 1474.9 23.3732 1479.16 38 1489C30.6109 1502.77 31.2705 1510 41.5 1522L44 1527Z" fill="#D9D9D9"/>
<path d="M72 1534L60.9535 1553V1567.5H66.4768H72C71.4308 1562.68 71.8185 1560.45 77 1559.5C76.8697 1559.4 72.6953 1558.87 72 1553C73.3899 1543.9 74.6808 1542.05 77 1538.87L72 1534Z" fill="#D9D9D9"/>
<path d="M65.5 0V124.5M65.5 124.5C81.7332 103.236 91.8361 94.534 122 118C136.459 145.552 124.378 172.765 65.5 225C25.3754 173.529 -7.51947 150.168 13 118C22.5556 103.494 31.6217 105.535 47 107L65.5 124.5ZM65.5 229C65.5 187.5 65.5 440 65.5 440M65.5 440H75H87.5H95H100.5V559.5H68.25M65.5 440H30.5V559.5H36H68.25M68.25 559.5V815M68.25 815H75L80.5 776.5H92L100.5 784H110L127.5 809C125.389 813.642 120.35 810.702 110 803.5L107.153 801.286M68.25 815H54.5C53.0905 803.453 51.8002 796.415 54.5 789.5L48.5 784L30.5 789.5L19.5 795.5L5.50003 815C5.50003 815 9.00003 820.5 9.00003 822C9.00003 823.5 17.8643 813.378 27 809M87.5 822L83.5 818L92 789.5L107.153 801.286M87.5 822L107.153 801.286M87.5 822C96.3845 823.668 99.4933 826.182 100.5 834.5C103.328 839.583 103.917 842.224 100.5 846C107.09 853.743 110.507 858.116 107.153 867.009M40.5 822C28.5539 831.171 30.3701 836.526 30.5 846L23 859.5L19.5 876L30.5 889.5L44 893.25M40.5 822C36.4349 821.535 33.1795 817.542 27 809M40.5 822L48.5 818L40.5 795.5L27 809M54.5 846L60 828H68.25L75 841.5L83.5 838H92L96 846V859.5L87.5 863H80.5H100.5L107.153 867.009M107.153 867.009C111.452 867.653 112.56 869.186 110 876C110.207 879.571 107.608 882.753 100.5 889.5L75 894.5H61.75M54.5 841.5L45.9176 835.778M44 893.25L48.5 894.5H61.75M44 893.25L36 882.5L27 876C24.1778 869.615 24.4923 866.627 30.5 863C30.5 863 36 862 44 863C52 864 36 859.5 36 859.5C34.9548 851.391 33.8164 848.967 30.5 849.5C36.1185 846.885 36.5845 845.025 36 841.5C44.464 838.972 47.4767 837.472 45.9176 835.778M60 889.5C75.8683 886.587 81.4064 883.409 87.5 876C78.7689 878.305 73.0957 881.075 68.25 876L65.5 869.5M60 889.5L59.686 889.28M60 889.5C59.8943 889.426 59.7896 889.353 59.686 889.28M65.5 869.5L75 863C75.6133 860.768 75.0109 859.768 68.25 859.5H60C55.9106 860.01 55.3486 861.322 60 867.009L65.5 869.5ZM65.5 869.5C65.0672 878.928 57.9954 878.295 44.1042 876.017M61.75 894.5V1113.5M61.75 1113.5H120.5C136.256 1119.66 128.707 1160.68 130 1200M61.75 1113.5H12L2.50003 1122.5V1200M130 1200H2.50003M130 1200C129.58 1207.6 128.861 1211.77 117.5 1217.5H80V1230.5H88.5V1235.5H64.5M2.50003 1200C1.56532 1206.7 2.67665 1210.5 12 1217.5H51.5V1230.5H40.5V1235.5H64.5M64.5 1235.5V1447.5M64.5 1447.5L80 1451L85 1455.25M64.5 1447.5H55.5M100 1468L109 1472M100 1468L80 1476.5M100 1468C105.383 1452.71 84 1441 85 1455.25M109 1472C102.647 1482.23 99.7829 1487.94 100 1498C101.577 1519.58 96.0604 1523.86 85 1530C90.2856 1534.42 88 1543 91.5 1553C95 1563 85.8757 1552.78 77 1538.87M109 1472L72 1489L80 1476.5M55.5 1534L59.5 1555.5L60.9535 1553M55.5 1534L55.2474 1534.6M55.5 1534C55.4149 1534.2 55.3307 1534.4 55.2474 1534.6M44 1527C42.0632 1542.8 40.8585 1550 38 1553H44C49.8323 1547.37 51.8267 1542.66 55.2474 1534.6M44 1527L77 1530C81.8066 1511.69 78.5606 1501.44 59.5 1495C57.3522 1488.97 46.6217 1481.59 26.5 1468M44 1527L41.5 1522C31.2705 1510 30.6109 1502.77 38 1489C23.3732 1479.16 22.9038 1474.9 26.5 1468M26.5 1468H31C28.1526 1454.72 30.3355 1450.88 41.5 1451C44.945 1445.35 48.647 1445.93 55.5 1447.5M60.9535 1553L72 1534L77 1538.87M60.9535 1553V1567.5H66.4768M77 1538.87C74.6808 1542.05 73.3899 1543.9 72 1553C72.6953 1558.87 76.8697 1559.4 77 1559.5C71.8185 1560.45 71.4308 1562.68 72 1567.5H66.4768M55.5 1447.5C52.3475 1454.33 49.2474 1457.39 44 1463L62 1469.75M80 1476.5L62 1469.75M62 1469.75C52.0366 1465.14 58.1115 1462.54 85 1455.25M66.4768 1567.5V1788.5M66.4768 1788.5H44V1809H34.5V1873L44 1878M66.4768 1788.5H86.5V1809L97.5 1812.5V1845.25M44 1878C44 1878 44.0004 1896.5 44.0004 1898M44 1878L44.0004 1898M44.0004 1898C44.0004 1899.5 65.2513 1900 65.2513 1900M66.4768 1860L65.2513 1878M65.2513 1878H80.5V1892.5H51.5V1878H65.2513ZM80.5 1844L97.5 1845.25M97.5 1845.25V1878H86.5L86.5009 1899L65.2513 1900M66.4768 1809H51.5V1795H80.5V1809H66.4768ZM66.4768 1809L66.0377 1829.26M66.4768 1809C63.9999 1816.88 65.3087 1822.93 66.0377 1829.26M66 1831L66.0377 1829.26M38.5 1844L64.9767 1844.5C66.7956 1838.71 66.573 1833.91 66.0377 1829.26M22 1831V1855.5M111.5 1831V1855.5M65.2513 1900C65.5013 2495.67 65.85 3684 65.25 3684M45.9176 835.778L44 834.5C44.8977 834.949 45.541 835.369 45.9176 835.778ZM59.686 889.28C55.3799 886.269 52.8713 884.514 48.5 882.5C46.6563 879.779 45.1958 877.624 44.1042 876.017M44.1042 876.017C44.0695 876.011 44.0348 876.006 44 876C40.8773 871.3 40.7772 871.118 44.1042 876.017ZM40.5 451L92 449.5V540.5H40.5V451ZM60 549H75V553.5H60V549ZM48.5 859.5L54.5 853C52.7739 847.487 50.8229 844.819 44 841.5C37.9933 854.227 39.8144 857.553 48.5 859.5ZM83.5 846C80.5905 853.893 78.3888 850.653 80.5 853C78.9358 854.761 79.9183 856.084 87.5 859.5C95.2739 846.881 85.8517 839.62 83.5 846ZM10.5 1121H120.5V1192H10.5V1121Z" stroke="#3300FF" stroke-width="3"/>
</svg>
